<svg xmlns="http://www.w3.org/2000/svg" viewBox="0 0 499.49 348.2"><defs><style>.cls-1,.cls-3,.cls-4,.cls-5{fill:#232946;}.cls-2{fill:#eebbc2;}.cls-3,.cls-4,.cls-5{stroke:#232946;stroke-width:25px;}.cls-3,.cls-5{stroke-linejoin:round;}.cls-4{stroke-miterlimit:10;}.cls-5{stroke-linecap:round;}</style></defs><title>si-webAsset 13</title><g id="Layer_2" data-name="Layer 2"><g id="Layer_1-2" data-name="Layer 1"><path class="cls-1" d="M406.19,338.2a30.6,30.6,0,0,1-17.22-5,37.29,37.29,0,0,1-19.68,5A30,30,0,0,1,348.06,330l-.63-.62c-.17-.16-.33-.33-.5-.5s-.33-.33-.5-.5-.33-.33-.5-.5-.33-.33-.5-.5-.33-.33-.5-.5-.33-.33-.5-.5-.33-.33-.5-.5-.33-.33-.5-.5-.33-.33-.5-.5-.33-.33-.5-.5-.33-.33-.5-.5-.33-.33-.5-.5l-.3-.3v3.37a10,10,0,0,1-10,10H305.39a10,10,0,0,1-2.86-.42,36.73,36.73,0,0,1-12.8,2.22,30,30,0,0,1-21.24-8.26q-.32-.29-.6-.6l-.5-.5-.5-.5-.5-.5-.5-.5-.5-.5-.5-.5-.5-.5-.5-.5-.5-.5-.5-.5-.5-.5-.5-.5-.5-.5-.5-.5-.5-.5-.5-.5-.5-.5-.5-.5-.5-.5-.5-.5-.5-.5-.5-.5-.5-.5-.5-.5c-.17-.16-.34-.33-.5-.5s-.34-.33-.5-.5-.34-.33-.5-.5-.34-.33-.5-.5-.34-.33-.5-.5-.34-.33-.5-.5-.34-.33-.5-.5-.34-.33-.5-.5-.34-.33-.5-.5-.34-.33-.5-.5-.34-.33-.5-.5-.34-.33-.5-.5-.34-.33-.5-.5-.34-.33-.5-.5-.34-.33-.5-.5-.34-.33-.5-.5-.34-.33-.5-.5-.34-.33-.5-.5-.34-.33-.5-.5-.34-.33-.5-.5-.34-.33-.5-.5-.34-.33-.5-.5-.34-.33-.5-.5-.34-.33-.5-.5-.34-.33-.5-.5-.34-.33-.5-.5-.34-.33-.5-.5-.34-.33-.5-.5-.34-.33-.5-.5-.34-.33-.5-.5-.34-.33-.5-.5-.34-.33-.5-.5-.34-.33-.5-.5-.34-.33-.5-.5-.34-.33-.5-.5-.34-.33-.5-.5-.34-.33-.5-.5-.34-.33-.5-.5-.34-.33-.5-.5-.34-.33-.5-.5-.34-.33-.5-.5-.34-.33-.5-.5-.34-.33-.5-.5-.34-.33-.5-.5-.34-.33-.5-.5-.34-.33-.5-.5-.34-.33-.5-.5-.34-.33-.5-.5-.34-.33-.5-.5-.34-.33-.5-.5-.34-.33-.5-.5-.34-.33-.5-.5-.34-.33-.5-.5-.34-.33-.5-.5-.34-.33-.5-.5-.34-.33-.5-.5-.34-.33-.5-.5-.34-.33-.5-.5-.34-.33-.5-.5-.34-.33-.5-.5-.34-.33-.5-.5-.34-.33-.5-.5-.34-.33-.5-.5-.34-.33-.5-.5-.34-.33-.5-.5-.34-.33-.5-.5-.34-.33-.5-.5-.34-.33-.5-.5-.34-.33-.5-.5-.34-.33-.5-.5-.34-.33-.5-.5-.34-.33-.5-.5-.34-.33-.5-.5-.31-.3-.45-.45c-6.74-6.19-10.45-15.45-10.45-26.13V204.58a10,10,0,0,1,4.27-8.19l-.4-.4a27.51,27.51,0,0,1-8.19-19.49,27.13,27.13,0,0,1,27.1-27.1,26.57,26.57,0,0,1,19.26,8.22l37,37,.48.48a35.41,35.41,0,0,1,12.2-2.13c9.59,0,17.88,3.27,24,9.45l.86.85a10,10,0,0,1,4.17-6.87l-.39-.4a27.51,27.51,0,0,1-8.19-19.49,27.13,27.13,0,0,1,27.1-27.1A26.57,26.57,0,0,1,367,157.62c.17.16,7.7,7.69,7.8,7.8a10,10,0,0,1,3.72-.72h25.74a10,10,0,0,1,7.31,3.19,5.9,5.9,0,0,1,.5.5,5.9,5.9,0,0,1,.5.5,5.9,5.9,0,0,1,.5.5,5.9,5.9,0,0,1,.5.5,5.9,5.9,0,0,1,.5.5,5.9,5.9,0,0,1,.5.5,5.9,5.9,0,0,1,.5.5,5.9,5.9,0,0,1,.5.5,5.9,5.9,0,0,1,.5.5,5.9,5.9,0,0,1,.5.5,5.9,5.9,0,0,1,.5.5,5.9,5.9,0,0,1,.5.5,5.9,5.9,0,0,1,.5.5,5.9,5.9,0,0,1,.5.5,5.9,5.9,0,0,1,.5.5,5.9,5.9,0,0,1,.5.5,5.9,5.9,0,0,1,.5.5,5.9,5.9,0,0,1,.5.5,5.9,5.9,0,0,1,.5.5,5.9,5.9,0,0,1,.5.5,5.9,5.9,0,0,1,.5.5,5.9,5.9,0,0,1,.5.5,5.9,5.9,0,0,1,.5.5,5.9,5.9,0,0,1,.5.5,5.9,5.9,0,0,1,.5.5,5.9,5.9,0,0,1,.5.5,5.9,5.9,0,0,1,.5.5,5.9,5.9,0,0,1,.5.5,5.9,5.9,0,0,1,.5.5,5.9,5.9,0,0,1,.5.5,5.9,5.9,0,0,1,.5.5,5.9,5.9,0,0,1,.5.5,5.9,5.9,0,0,1,.5.5,5.9,5.9,0,0,1,.5.5,5.9,5.9,0,0,1,.5.5,5.9,5.9,0,0,1,.5.5,5.9,5.9,0,0,1,.5.5,5.9,5.9,0,0,1,.5.5,5.9,5.9,0,0,1,.5.5,5.9,5.9,0,0,1,.5.5,5.9,5.9,0,0,1,.5.5,5.9,5.9,0,0,1,.5.5,5.9,5.9,0,0,1,.5.5,5.9,5.9,0,0,1,.5.5,5.9,5.9,0,0,1,.5.5,5.9,5.9,0,0,1,.5.5,5.9,5.9,0,0,1,.5.5,5.9,5.9,0,0,1,.5.5,5.9,5.9,0,0,1,.5.5,5.9,5.9,0,0,1,.5.5,5.9,5.9,0,0,1,.5.5,5.9,5.9,0,0,1,.5.5,5.9,5.9,0,0,1,.5.5,5.9,5.9,0,0,1,.5.5,5.9,5.9,0,0,1,.5.5,5.9,5.9,0,0,1,.5.5,5.9,5.9,0,0,1,.5.5,5.9,5.9,0,0,1,.5.5,5.9,5.9,0,0,1,.5.5,5.9,5.9,0,0,1,.5.5,5.9,5.9,0,0,1,.5.5,5.9,5.9,0,0,1,.5.5,5.9,5.9,0,0,1,.5.5,5.9,5.9,0,0,1,.5.5,5.9,5.9,0,0,1,.5.5,5.9,5.9,0,0,1,.5.5,5.9,5.9,0,0,1,.5.5,5.9,5.9,0,0,1,.5.5,5.9,5.9,0,0,1,.5.5,5.9,5.9,0,0,1,.5.5,5.9,5.9,0,0,1,.5.5,5.9,5.9,0,0,1,.5.5,5.9,5.9,0,0,1,.5.5,5.9,5.9,0,0,1,.5.5,5.9,5.9,0,0,1,.5.5,5.9,5.9,0,0,1,.5.5,5.9,5.9,0,0,1,.5.5,5.9,5.9,0,0,1,.5.5,5.9,5.9,0,0,1,.5.5,5.9,5.9,0,0,1,.5.5,5.9,5.9,0,0,1,.5.5,5.9,5.9,0,0,1,.5.5,5.9,5.9,0,0,1,.5.5,5.9,5.9,0,0,1,.5.5,5.9,5.9,0,0,1,.5.5,5.9,5.9,0,0,1,.5.5,5.9,5.9,0,0,1,.5.5,5.9,5.9,0,0,1,.5.5,5.9,5.9,0,0,1,.5.5,5.9,5.9,0,0,1,.5.5,5.9,5.9,0,0,1,.5.5,5.9,5.9,0,0,1,.5.5,5.9,5.9,0,0,1,.5.5,5.9,5.9,0,0,1,.5.5,5.9,5.9,0,0,1,.5.5,5.9,5.9,0,0,1,.5.5,5.9,5.9,0,0,1,.5.5,5.9,5.9,0,0,1,.5.5,5.9,5.9,0,0,1,.5.5,10,10,0,0,1,3.19,7.31v9.72l.33.35a5.9,5.9,0,0,1,.5.5,5.9,5.9,0,0,1,.5.5,5.9,5.9,0,0,1,.5.5,5.9,5.9,0,0,1,.5.5,5.9,5.9,0,0,1,.5.5,5.9,5.9,0,0,1,.5.5,5.9,5.9,0,0,1,.5.5,5.9,5.9,0,0,1,.5.5,5.9,5.9,0,0,1,.5.5,5.9,5.9,0,0,1,.5.5,5.9,5.9,0,0,1,.5.5,5.9,5.9,0,0,1,.5.5,5.9,5.9,0,0,1,.5.5,5.9,5.9,0,0,1,.5.5,5.9,5.9,0,0,1,.5.5,5.9,5.9,0,0,1,.5.5,5.9,5.9,0,0,1,.5.5,5.9,5.9,0,0,1,.5.5,5.9,5.9,0,0,1,.5.5,5.9,5.9,0,0,1,.5.5,5.9,5.9,0,0,1,.5.5,5.9,5.9,0,0,1,.5.5,5.9,5.9,0,0,1,.5.5,5.9,5.9,0,0,1,.5.5,5.9,5.9,0,0,1,.5.5,10,10,0,0,1,3.19,7.31V277.8a10,10,0,0,1-10,10h-1.06l.37.38c.18.16.34.33.5.5s.34.33.5.5.34.33.5.5.34.33.5.5.34.33.5.5.34.33.5.5.34.33.5.5.34.33.5.5.34.33.5.5.34.33.5.5.34.33.5.5.34.33.5.5.34.33.5.5.34.33.5.5.34.33.5.5a10,10,0,0,1,3.19,7.32v20a10,10,0,0,1-3.95,8c-6.53,5-13,7.08-21.53,7.08-8.76,0-16.39-2.3-22.37-6.69C421.63,338.2,410.43,338.2,406.19,338.2Z"/><path class="cls-2" d="M347.73,159.4a16.77,16.77,0,0,1,12.17,5.27l.5.5.5.5.5.5.5.5.5.5.5.5.5.5.5.5.5.5.5.5.5.5.5.5.5.5.5.5.5.5.5.5.5.5.5.5.5.5.5.5.5.5.5.5.5.5.5.5.5.5.5.5.5.5.5.5.5.5.5.5.5.5.5.5.5.5.5.5.5.5.5.5.5.5.11.1V174.7h25.74v.5h.5v.5h.5v.5h.5v.5h.5v.5h.5v.5h.5v.5h.5v.5h.5v.5h.5v.5h.5v.5h.5v.5h.5v.5h.5v.5h.5v.5h.5v.5h.5v.5h.5v.5h.5v.5h.5v.5h.5v.5h.5v.5h.5v.5h.5v.5h.5v.5h.5v.5h.5v.5h.5v.5h.5v.5h.5v.5h.5v.5h.5v.5h.5v.5h.5v.5h.5v.5h.5v.5h.5v.5h.5v.5h.5v.5h.5v.5h.5v.5h.5v.5h.5v.5h.5v.5h.5v.5h.5v.5h.5v.5h.5v.5h.5v.5h.5v.5h.5v.5h.5v.5h.5v.5h.5v.5h.5v.5h.5v.5h.5v.5h.5v.5h.5v.5h.5v.5h.5v.5h.5v.5h.5v.5h.5v.5h.5v.5h.5v.5h.5v.5h.5v.5h.5v.5h.5v.5h.5v.5h.5v.5h.5v.5h.5v.5h.5v.5h.5v.5h.5v.5h.5v.5h.5v.5h.5v.5h.5v.5h.5v.5h.5v.5h.5v.5h.5v.5h.5v.5h.5v.5h.5v.5h.5v.5h.5v.5h.5v.5h.5v.5h.5v.5h.5v.5h.5v.5h.5v.5h.5v.5h.5v.5h.5v.5h.5v.5h.5v13.88h0v.5h.5v.5h.5v.5h.5v.5h.5v.5h.5v.5h.5v.5h.5v.5h.5v.5h.5v.5h.5v.5h.5v.5h.5v.5h.5v.5h.5v.5h.5v.5h.5v.5h.5v.5h.5v.5h.5v.5h.5v.5h.5v.5h.5v.5h.5v.5h.5v.5h.5v.5h.5v.5h.5v.5h.5v.5h.5v.5h.5v.5h.5v.5h.5V277.8h-16V287h0v.76l.5-.26v.76l.5-.26v.76l.5-.26v.76l.5-.26v.76l.5-.26v.76l.5-.26v.76l.5-.26v.76l.5-.26v.76l.5-.26v.76l.5-.26v.76l.5-.26v.76l.5-.26v.76l.5-.26v.76l.5-.26v.76l.5-.26v.76l.5-.26v.76l.5-.26v.76l.5-.26v.76l.5-.26v.76l.5-.26v.76l.5-.26v.76l.5-.26v.76l.5-.26v.76l.5-.26v.76l.5-.26v.76l.5-.26v.76l.5-.26v.76l.5-.26v.76l.5-.26v.76l.5-.26v.76l.5-.26v.76l.5-.26v20c-4.5,3.42-8.82,5-15.48,5-8.28,0-14.65-2.48-19-7l-.5-.5-.5-.5-.5-.5-.5-.5-.5-.5a4.68,4.68,0,0,1-.39-.38c-9.1,9.49-20.8,10.08-26.67,10.08a20.18,20.18,0,0,1-14.37-5.53c-.18-.15-.33-.33-.5-.5s-.33-.33-.5-.5-.33-.33-.5-.5-.33-.33-.5-.5-.18-.18-.28-.27c-7.72,6.94-14.35,7.8-20.25,7.8a20.18,20.18,0,0,1-14.37-5.53c-.18-.15-.33-.33-.5-.5s-.33-.33-.5-.5-.33-.33-.5-.5-.33-.33-.5-.5-.33-.33-.5-.5-.33-.33-.5-.5-.33-.33-.5-.5-.33-.33-.5-.5-.33-.33-.5-.5-.33-.33-.5-.5-.33-.33-.5-.5-.33-.33-.5-.5-.33-.33-.5-.5-.33-.33-.5-.5-.33-.33-.5-.5-.33-.33-.5-.5-.33-.33-.5-.5-.33-.33-.5-.5-.33-.33-.5-.5-.33-.33-.5-.5-.33-.33-.5-.5-.33-.33-.5-.5-.33-.33-.5-.5-.33-.33-.5-.5-.33-.33-.5-.5-.33-.33-.5-.5-.33-.33-.5-.5-.33-.33-.5-.5-.33-.33-.5-.5-.33-.33-.5-.5-.33-.33-.5-.5-.33-.33-.5-.5-.33-.33-.5-.5-.33-.33-.5-.5-.33-.33-.5-.5-.33-.33-.5-.5-.33-.33-.5-.5-.33-.33-.5-.5-.33-.33-.5-.5-.33-.33-.5-.5-.33-.33-.5-.5-.33-.33-.5-.5-.33-.33-.5-.5-.33-.33-.5-.5-.33-.33-.5-.5-.33-.33-.5-.5-.33-.33-.5-.5l-.29-.29V326.4H305.39v-.5h-.5v-.5h-.5v-.5h-.5v-.5h-.26a25.89,25.89,0,0,1-13.9,3.8,20.18,20.18,0,0,1-14.37-5.53c-.17-.15-.33-.33-.5-.5s-.33-.33-.5-.5-.33-.33-.5-.5-.33-.33-.5-.5-.33-.33-.5-.5-.33-.33-.5-.5-.33-.33-.5-.5-.33-.33-.5-.5-.33-.33-.5-.5-.33-.33-.5-.5-.33-.33-.5-.5-.33-.33-.5-.5-.33-.33-.5-.5-.33-.33-.5-.5-.33-.33-.5-.5-.33-.33-.5-.5-.33-.33-.5-.5-.33-.33-.5-.5-.33-.33-.5-.5-.33-.33-.5-.5-.33-.33-.5-.5-.33-.33-.5-.5-.33-.33-.5-.5-.33-.33-.5-.5-.33-.33-.5-.5-.33-.33-.5-.5-.33-.33-.5-.5-.33-.33-.5-.5-.33-.33-.5-.5-.33-.33-.5-.5-.33-.33-.5-.5-.33-.33-.5-.5-.33-.33-.5-.5-.33-.33-.5-.5-.33-.33-.5-.5-.33-.33-.5-.5-.33-.33-.5-.5-.33-.33-.5-.5-.33-.33-.5-.5-.33-.33-.5-.5-.33-.33-.5-.5-.33-.33-.5-.5-.33-.33-.5-.5-.33-.33-.5-.5-.33-.33-.5-.5-.33-.33-.5-.5-.33-.33-.5-.5-.33-.33-.5-.5-.33-.33-.5-.5-.33-.33-.5-.5-.33-.33-.5-.5-.33-.33-.5-.5-.33-.33-.5-.5-.33-.33-.5-.5-.33-.33-.5-.5-.33-.33-.5-.5-.33-.33-.5-.5-.33-.33-.5-.5-.33-.33-.5-.5-.33-.33-.5-.5-.33-.33-.5-.5-.33-.33-.5-.5-.33-.33-.5-.5-.33-.33-.5-.5-.33-.33-.5-.5-.33-.33-.5-.5-.33-.33-.5-.5-.33-.33-.5-.5-.33-.33-.5-.5-.33-.33-.5-.5-.33-.33-.5-.5-.33-.33-.5-.5-.33-.33-.5-.5-.33-.33-.5-.5-.33-.33-.5-.5-.33-.33-.5-.5-.33-.33-.5-.5-.33-.33-.5-.5-.33-.33-.5-.5-.33-.33-.5-.5-.33-.33-.5-.5-.33-.33-.5-.5-.33-.33-.5-.5-.33-.33-.5-.5-.33-.33-.5-.5-.33-.33-.5-.5-.33-.33-.5-.5-.33-.33-.5-.5-.33-.33-.5-.5-.33-.33-.5-.5-.33-.33-.5-.5-.33-.33-.5-.5-.33-.33-.5-.5-.33-.33-.5-.5-.33-.33-.5-.5-.33-.33-.5-.5-.33-.33-.5-.5-.33-.33-.5-.5-.33-.33-.5-.5c-4.63-4.16-7.37-10.71-7.37-18.91V204.58h16.59l-.12-.13c-.17-.17-.34-.33-.5-.5s-.34-.33-.5-.5-.34-.33-.5-.5-.34-.33-.5-.5-.34-.33-.5-.5-.34-.33-.5-.5-.34-.33-.5-.5-.34-.33-.5-.5-.34-.33-.5-.5-.34-.33-.5-.5-.34-.33-.5-.5-.34-.33-.5-.5-.34-.33-.5-.5-.34-.33-.5-.5-.34-.33-.5-.5-.34-.33-.5-.5-.34-.33-.5-.5-.34-.33-.5-.5-.34-.33-.5-.5-.34-.33-.5-.5-.34-.33-.5-.5-.34-.33-.5-.5-.34-.33-.5-.5-.34-.33-.5-.5-.34-.33-.5-.5-.34-.33-.5-.5-.34-.33-.5-.5-.34-.33-.5-.5-.34-.33-.5-.5-.34-.33-.5-.5-.34-.33-.5-.5a17.38,17.38,0,0,1-5.29-12.45,17.09,17.09,0,0,1,17.1-17.1,16.75,16.75,0,0,1,12.17,5.27l.5.5.5.5.5.5.5.5.5.5.5.5.5.5.5.5.5.5.5.5.5.5.5.5.5.5.5.5.5.5.5.5.5.5.5.5.5.5.5.5.5.5.5.5.5.5.5.5.5.5.5.5.5.5.5.5.5.5.5.5.5.5.5.5.5.5.5.5.5.5.5.5.5.5.5.5.5.5.5.5.5.5.5.5.5.5.5.5.5.5.5.5.5.5.5.5.5.5.5.5.5.5.5.5.5.5.5.5.5.5.5.5.5.5.5.5.5.5.5.5.5.5.5.5.5.5.5.5.5.5.5.5.5.5.5.5.5.5.5.5.5.5.5.5.5.5.5.5.5.5.5.5.5.5.5.5.5.5.5.5.5.5.5.5.5.5.5.5.5.5a.86.86,0,0,1,.14.13A24.21,24.21,0,0,1,300.21,203c7.14,0,12.89,2.41,16.92,6.54.17.16.34.33.5.5s.34.33.5.5.34.33.5.5.34.33.5.5.34.33.5.5.34.33.5.5.34.33.5.5.34.33.5.5.34.33.5.5.34.33.5.5.34.33.5.5.34.33.5.5.34.33.5.5.34.33.5.5.34.33.5.5.34.33.5.5.34.33.5.5.34.33.5.5.34.33.5.5.34.33.5.5.34.33.5.5.34.33.5.5.34.33.5.5.34.33.5.5.34.33.5.5.34.33.5.5.34.33.5.5.34.33.5.5.34.33.5.5.34.33.5.5.34.33.5.5.34.33.5.5.34.33.5.5.34.33.5.5.34.33.5.5.21.21.32.32V204.58h16.59l-.12-.13c-.17-.17-.34-.33-.5-.5s-.34-.33-.5-.5-.34-.33-.5-.5-.34-.33-.5-.5-.34-.33-.5-.5-.34-.33-.5-.5-.34-.33-.5-.5-.34-.33-.5-.5-.34-.33-.5-.5-.34-.33-.5-.5-.34-.33-.5-.5-.34-.33-.5-.5-.34-.33-.5-.5-.34-.33-.5-.5-.34-.33-.5-.5-.34-.33-.5-.5-.34-.33-.5-.5-.34-.33-.5-.5-.34-.33-.5-.5-.34-.33-.5-.5-.34-.33-.5-.5-.34-.33-.5-.5-.34-.33-.5-.5-.34-.33-.5-.5-.34-.33-.5-.5-.34-.33-.5-.5-.34-.33-.5-.5-.34-.33-.5-.5-.34-.33-.5-.5-.34-.33-.5-.5-.34-.33-.5-.5a17.38,17.38,0,0,1-5.29-12.45,17.09,17.09,0,0,1,17.1-17.1m0-20a37.09,37.09,0,0,0-36.27,44.89A47.22,47.22,0,0,0,300.21,183a46.54,46.54,0,0,0-9.26.93l-.35-.35-.5-.5-.5-.5-.5-.5-.5-.5-.5-.5-.5-.5-.5-.5-.5-.5-.5-.5-.5-.5-.5-.5-.5-.5-.5-.5-.5-.5-.5-.5-.5-.5-.5-.5-.5-.5-.5-.5-.5-.5-.5-.5-.5-.5-.5-.5-.5-.5-.5-.5-.5-.5-.5-.5-.5-.5-.5-.5-.5-.5-.5-.5-.5-.5-.5-.5-.5-.5-.5-.5-.5-.5-.5-.5-.5-.5-.5-.5-.5-.5-.5-.5-.5-.5-.5-.5-.5-.5-.5-.5-.5-.5-.5-.5-.5-.5-.5-.5-.5-.5-.5-.5-.5-.5-.5-.5-.5-.5-.5-.5-.5-.5-.5-.5-.5-.5-.5-.5-.5-.5-.5-.5-.5-.5-.5-.5-.5-.5-.5-.5-.48-.48a37,37,0,0,0-63.45,25.94,37.48,37.48,0,0,0,6,20.17,19.84,19.84,0,0,0-1.63,7.91v49.68c0,13.41,4.78,25.2,13.46,33.3l.38.37.5.5.5.5.5.5.5.5.5.5.5.5.5.5.5.5.5.5.5.5.5.5.5.5.5.5.5.5.5.5.5.5.5.5.5.5.5.5.5.5.5.5.5.5.5.5.5.5.5.5.5.5.5.5.5.5.5.5.5.5.5.5.5.5.5.5.5.5.5.5.5.5.5.5.5.5.5.5.5.5.49.49.51.51.5.5.5.5.5.5.5.5.5.5.5.5.5.5.5.5.5.5.5.5.5.5.5.5.5.5.5.5.5.5.5.5.5.5.5.5.5.5.5.5.5.5.5.5.5.5.5.5.5.5.5.5.5.5.5.5.5.5.5.5.5.5.5.5.5.5.5.5.5.5.5.5.5.5.5.5.5.5.5.5.5.5.5.5.5.5.5.5.5.5.5.5.5.5.5.5.5.5.5.5.5.5.5.5.5.5.5.5.5.5c.23.24.5.51.81.8a40.4,40.4,0,0,0,28.09,11,47.14,47.14,0,0,0,13.51-1.92,19.1,19.1,0,0,0,2.15.12h25.74a19.93,19.93,0,0,0,14.1-5.82,40.79,40.79,0,0,0,24.06,7.62,48.2,48.2,0,0,0,19.48-3.74,41.62,41.62,0,0,0,17.42,3.74,60.66,60.66,0,0,0,25.93-5.33A48.63,48.63,0,0,0,454.79,348a43.41,43.41,0,0,0,27.58-9.12,20,20,0,0,0,7.9-15.92V303a20,20,0,0,0-4.47-12.6,19.93,19.93,0,0,0,4.47-12.6V254.58a20,20,0,0,0-6.11-14.39l-.5-.5-.5-.5-.5-.5-.5-.5-.5-.5-.5-.5-.5-.5-.5-.5-.5-.5-.5-.5-.5-.5-.5-.5-.5-.5-.5-.5-.5-.5-.5-.5-.5-.5-.5-.5-.5-.5-.41-.41V224.7a20,20,0,0,0-6.11-14.39l-.5-.5-.5-.5-.5-.5-.5-.5-.5-.5-.5-.5-.5-.5-.5-.5-.5-.5-.5-.5-.5-.5-.5-.5-.5-.5-.5-.5-.5-.5-.5-.5-.5-.5-.5-.5-.5-.5-.5-.5-.5-.5-.5-.5-.5-.5-.5-.5-.5-.5-.5-.5-.5-.5-.5-.5-.5-.5-.5-.5-.5-.5-.5-.5-.5-.5-.5-.5-.5-.5-.5-.5-.5-.5-.5-.5-.5-.5-.5-.5-.5-.5-.5-.5-.5-.5-.5-.5-.5-.5-.5-.5-.5-.5-.5-.5-.5-.5-.5-.5-.5-.5-.5-.5-.5-.5-.5-.5-.5-.5-.5-.5-.5-.5-.5-.5-.5-.5-.5-.5-.5-.5-.5-.5-.5-.5-.5-.5-.5-.5-.5-.5-.5-.5-.5-.5-.5-.5-.5-.5-.5-.5-.5-.5-.5-.5-.5-.5-.5-.5-.5-.5-.5-.5-.5-.5-.5-.5-.5-.5-.5-.5-.5-.5-.5-.5-.5-.5-.5-.5-.5-.5-.5-.5-.5-.5-.5-.5-.5-.5-.5-.5-.5-.5-.5-.5-.5-.5-.5-.5-.5-.5-.5-.5-.5-.5-.5-.5a20,20,0,0,0-14.39-6.11h-26l-.16-.17-.5-.5-.5-.5-.5-.5-.5-.5-.5-.5-.5-.5-.5-.5-.48-.48a37,37,0,0,0-26.35-11.16Z"/><path class="cls-1" d="M245.8,338.2a27,27,0,0,1-19.45-8.15l-.5-.5-49-49a26.6,26.6,0,0,1-8.16-19.28A26.9,26.9,0,0,1,195.8,234a26.57,26.57,0,0,1,19.32,8.16l.49.49.5.5.5.5.5.5.5.5.5.5.5.5.5.5.5.5.5.5.5.5.5.5.5.5.5.5.5.5.5.5.5.5.5.5.5.5.5.5.5.5.5.5.5.5.5.5.5.5.5.5.5.5.5.5.5.5.5.5.5.5.5.5.5.5.5.5.5.5.5.5.5.5.5.5.5.5.5.5.5.5.5.5.5.5.5.5.5.5.5.5.5.5.5.5.5.5.5.5.5.5.5.5.5.5.5.5.5.5.5.5.5.5.5.5.5.5.5.5.5.5.5.5.5.5.5.5.5.5.5.5.5.5.5.5.5.5.5.5.5.5.5.5.5.5.5.5.5.5.5.5.5.5.5.5.5.5.5.5.5.5.5.5.5.5.5.5.5.5.5.5.5.5.5.5.5.5.5.5.5.5.5.5.5.5.5.5.5.5.5.5.5.5.5.5.52.52a27.24,27.24,0,0,1,8.09,19.61A26.64,26.64,0,0,1,245.8,338.2Z"/><path class="cls-2" d="M195.8,244A16.68,16.68,0,0,1,208,249.2l.5.5.5.5.5.5.5.5.5.5.5.5.5.5.5.5.5.5.5.5.5.5.5.5.5.5.5.5.5.5.5.5.5.5.5.5.5.5.5.5.5.5.5.5.5.5.5.5.5.5.5.5.5.5.5.5.5.5.5.5.5.5.5.5.5.5.5.5.5.5.5.5.5.5.5.5.5.5.5.5.5.5.5.5.5.5.5.5.5.5.5.5.5.5.5.5.5.5.5.5.5.5.5.5.5.5.5.5.5.5.5.5.5.5.5.5.5.5.5.5.5.5.5.5.5.5.5.5.5.5.5.5.5.5.5.5.5.5.5.5.5.5.5.5.5.5.5.5.5.5.5.5.5.5.5.5.5.5.5.5.5.5.5.5.5.5.5.5.5.5.5.5.5.5.5.5.5.5.5.5.5.5.5.5.5.5.5.5.5.5.5.5.5.5.5.5.5.5a17.37,17.37,0,0,1,5.2,12.58A16.79,16.79,0,0,1,245.8,328.2,17.11,17.11,0,0,1,233.41,323l-.5-.5-.5-.5-.5-.5-.5-.5-.5-.5-.5-.5-.5-.5-.5-.5-.5-.5-.5-.5-.5-.5-.5-.5-.5-.5-.5-.5-.5-.5-.5-.5-.5-.5-.5-.5-.5-.5-.5-.5-.5-.5-.5-.5-.5-.5-.5-.5-.5-.5-.5-.5-.5-.5-.5-.5-.5-.5-.5-.5-.5-.5-.5-.5-.5-.5-.5-.5-.5-.5-.5-.5-.5-.5-.5-.5-.5-.5-.5-.5-.5-.5-.5-.5-.5-.5-.5-.5-.5-.5-.5-.5-.5-.5-.5-.5-.5-.5-.5-.5-.5-.5-.5-.5-.5-.5-.5-.5-.5-.5-.5-.5-.5-.5-.5-.5-.5-.5-.5-.5-.5-.5-.5-.5-.5-.5-.5-.5-.5-.5-.5-.5-.5-.5-.5-.5-.5-.5-.5-.5-.5-.5-.5-.5-.5-.5-.5-.5-.5-.5-.5-.5-.5-.5-.5-.5-.5-.5-.5-.5-.5-.5-.5-.5-.5-.5-.5-.5-.5-.5-.5-.5-.5-.5-.5-.5-.5-.5-.5-.5-.5-.5-.5-.5-.5-.5-.5-.5-.5-.5-.5-.5-.5-.5-.5-.5-.5-.5a16.78,16.78,0,0,1-5.21-12.19A17,17,0,0,1,195.8,244m0-20a36.81,36.81,0,0,0-26.32,10.9,37.25,37.25,0,0,0,.31,52.73l.49.49.5.5.5.5.5.5.5.5.5.5.5.5.5.5.5.5.5.5.5.5.5.5.5.5.5.5.5.5.5.5.5.5.5.5.5.5.5.5.5.5.5.5.5.5.5.5.5.5.5.5.5.5.5.5.5.5.5.5.5.5.5.5.5.5.5.5.5.5.5.5.5.5.5.5.5.5.5.5.5.5.5.5.5.5.5.5.5.5.5.5.5.5.5.5.5.5.5.5.5.5.5.5.5.5.5.5.5.5.5.5.5.5.5.5.5.5.5.5.5.5.5.5.5.5.5.5.5.5.5.5.5.5.5.5.5.5.5.5.5.5.5.5.5.5.5.5.5.5.5.5.5.5.5.5.5.5.5.5.5.5.5.5.5.5.5.5.5.5.5.5.5.5.5.5.5.5.5.5.5.5.5.5.5.5.5.5.5.5.5.5.5.5.5.5.51.51a37.1,37.1,0,1,0,52.43-52.51l-.53-.54c-.18-.18-.35-.34-.5-.5s-.35-.34-.5-.5-.35-.34-.5-.5-.35-.34-.5-.5-.35-.34-.5-.5-.35-.34-.5-.5-.35-.34-.5-.5-.35-.34-.5-.5-.35-.34-.5-.5-.35-.34-.5-.5-.35-.34-.5-.5-.35-.34-.5-.5-.35-.34-.5-.5-.35-.34-.5-.5-.35-.34-.5-.5-.35-.34-.5-.5-.35-.34-.5-.5-.35-.34-.5-.5-.35-.34-.5-.5-.35-.34-.5-.5-.35-.34-.5-.5-.35-.34-.5-.5-.35-.34-.5-.5-.35-.34-.5-.5-.35-.34-.5-.5-.35-.34-.5-.5-.35-.34-.5-.5-.35-.34-.5-.5-.35-.34-.5-.5-.35-.34-.5-.5l-.5-.5-.5-.5-.5-.5-.5-.5-.5-.5-.5-.5-.5-.5-.5-.5-.5-.5-.5-.5-.5-.5-.5-.5-.5-.5-.5-.5-.5-.5-.5-.5-.5-.5-.5-.5-.5-.5-.5-.5-.5-.5-.5-.5-.5-.5-.5-.5-.5-.5-.5-.5-.5-.5-.5-.5-.5-.5-.5-.5-.5-.5-.5-.5-.5-.5-.5-.5-.5-.5-.5-.5-.5-.5-.5-.5-.5-.5-.5-.5-.5-.5-.5-.5-.5-.5-.5-.5-.5-.5-.5-.5-.5-.5-.5-.5-.5-.5-.5-.5-.5-.5-.5-.5-.5-.5-.5-.5-.5-.5-.5-.5-.5-.5-.5-.5-.5-.5-.5-.5-.5-.5-.5-.5-.5-.5-.5-.5-.5-.5-.5-.5-.5-.5-.48-.47A36.41,36.41,0,0,0,195.8,224Z"/><path class="cls-1" d="M441.87,211.57a47.25,47.25,0,0,1-24.33-6.76c-9.26,6.17-20.76,6.76-24.8,6.76a30.61,30.61,0,0,1-17.16-5,42.82,42.82,0,0,1-19.75,5,30.35,30.35,0,0,1-19.63-6.89,35.66,35.66,0,0,1-21.76,6.89,42.66,42.66,0,0,1-23.14-6.48,46.92,46.92,0,0,1-22.4,6.48,31.08,31.08,0,0,1-19-6.49,36.82,36.82,0,0,1-20.91,6.49,33.85,33.85,0,0,1-20.06-6.12,43.5,43.5,0,0,1-22.6,5.94c-10.71,0-19.74-3.43-26.11-9.94l-12.61-12.6c-7.42,14.11-22.38,22.54-41.74,22.54-9.8,0-18.16-2.54-25.57-7.77a10.49,10.49,0,0,1-1.55-1.35l-.5-.5-.5-.5-.5-.5-.5-.5-.5-.5-.5-.5-.5-.5-.5-.5-.5-.5-.5-.5-.5-.5-.5-.5-.5-.5-.5-.5-.5-.5-.5-.5-.5-.5-.5-.5-.5-.5-.5-.5-.5-.5-.5-.5-.5-.5-.5-.5-.5-.5-.5-.5-.5-.5-.5-.5-.5-.5-.5-.5-.5-.5-.5-.5-.5-.5-.5-.5-.5-.5-.5-.5-.5-.5-.5-.5-.5-.5-.5-.5-.5-.5-.5-.5-.5-.5-.5-.5-.5-.5-.5-.5-.5-.5-.5-.5-.5-.5-.5-.5-.5-.5-.5-.5-.5-.5-.5-.5-.5-.5-.5-.5-.5-.5-.5-.5-.5-.5-.5-.5-.5-.5-.5-.5-.5-.5-.5-.5-.5-.5-.5-.5-.5-.5-.5-.5-.5-.5-.5-.5-.5-.5-.5-.5-.5-.5-.5-.5-.5-.5-.5-.5-.5-.5-.5-.5-.5-.5-.5-.5-.5-.5-.5-.5-.5-.5-.5-.5-.5-.5-.5-.5-.5-.5-.5-.5-.5-.5-.5-.5-.5-.5-.5-.5-.5-.5-.5-.5-.5-.5-.5-.5-.5-.5-.5-.5-.5-.5A10,10,0,0,1,26,145.45V116.66a10,10,0,0,1,15.3-8.48L24.61,91.46C14.78,81.7,10,70.92,10,58.52,10,30.4,32.52,10,63.56,10c15.11,0,29.9,5.94,39.58,15.89l12.19,12.19h20.41a10,10,0,0,1,7.32,3.18l.5.5.5.5.5.5.5.5.5.5.5.5.5.5.5.5.5.5.5.5.5.5.5.5.5.5.5.5.5.5.5.5.5.5.5.5.5.5.5.5.5.5.5.5.5.5.5.5.5.5.5.5.5.5.5.5.5.5.5.5.5.5.5.5.5.5.5.5.5.5.5.5.5.5.5.5.5.5.5.5.5.5.5.5.5.5.5.5.5.5c.17.16.34.33.5.5s.34.33.5.5.34.33.5.5.34.33.5.5.34.33.5.5.34.33.5.5.34.33.5.5.34.33.5.5l.2.2h11a9.94,9.94,0,0,1,7.31,3.18c.18.16.34.33.5.5s.34.33.5.5l.28.27A10,10,0,0,1,197.66,68H223.4a10,10,0,0,1,7.31,3.18c.18.16.34.33.5.5s.34.33.5.5.34.33.5.5.34.33.5.5.34.33.5.5.34.33.5.5.34.33.5.5.34.33.5.5.34.33.5.5.34.33.5.5.34.33.5.5l0,0a42.42,42.42,0,0,1,28.21-10.32,40.12,40.12,0,0,1,10.16,1.25V22a10,10,0,0,1,10-10h25.73a10,10,0,0,1,7.32,3.18c.17.16.34.33.5.5s.34.33.5.5.34.33.5.5.34.33.5.5.34.33.5.5.34.33.5.5.34.33.5.5.34.33.5.5.34.33.5.5.34.33.5.5.34.33.5.5.34.33.5.5.34.33.5.5.34.33.5.5.34.33.5.5.34.33.5.5.34.33.5.5l.28.27a27.16,27.16,0,0,1,7.85-1.15A26.56,26.56,0,0,1,353.54,31c.17.16.33.33.49.5l34.78,34.77c1-.07,2.05-.1,3.06-.1a47.12,47.12,0,0,1,33.94,14.3l49.42,49.42a47.68,47.68,0,0,1-33.36,81.69Z"/><path class="cls-2" d="M63.56,20C75.49,20,87.94,24.56,96,32.92c.17.16.34.33.5.5s.34.33.5.5.34.33.5.5.34.33.5.5.34.33.5.5.34.33.5.5.34.33.5.5.34.33.5.5.34.33.5.5.34.33.5.5.34.33.5.5.34.33.5.5.34.33.5.5.34.33.5.5.34.33.5.5.34.33.5.5.34.33.5.5.34.33.5.5.34.33.5.5.34.33.5.5.34.33.5.5.34.33.5.5.34.33.5.5.34.33.5.5.34.33.5.5.34.33.5.5.34.33.5.5.34.33.5.5.34.33.5.5.34.33.5.5l.16.16h24.55v.5h.5v.5h.5v.5h.5v.5h.5v.5h.5v.5h.5v.5h.5v.5h.5v.5h.5v.5h.5v.5h.5v.5h.5v.5h.5v.5h.5v.5h.5v.5h.5v.5h.5v.5h.5v.5h.5v.5h.5v.5h.5v.5h.5v.5h.5v.5h.5v.5h.5v.5h.5v.5h.5v.5h.5v.5h.5v.5h.5v.5h.5v.5h.5v.5h.5v.5h.5v.5h.5v.5h.5v.5h.5v.5h.5v.5h.5v.5h.5v.5h.5v.5h.5v.5h.5v.5h.5v.5h.5v.5h.5v.5h.5v.5h.5v.5h.5v.5h.5v.5h.5v.5h.5v.5h.5v.5h.5v.5h.5v.5h.5v.5h.5v.5h.5v.5h.5V78h15.5v.5h.5V79h.5v.5h.5V80h.5v.5h.5V81h.5v.5h.5V82h.5v.5h.5V83h.5v.5h.5V84h.5v.5h.5V85h.5v.5h.5V86h.5v.5h.5V87h.5v.5h.5V88h.5v.5h.5V89h.5v.5h.5V90h.5v.5h.5V91h.5v.5h.5V92h.5v.5h.5V93h.5v.5h.5V94h.5v.5h.5V95h.42V78H223.4v.5h.5V79h.5v.5h.5V80h.5v.5h.5V81h.5v.5h.5V82h.5v.5h.5V83h.5v.5h.5V84h.5v.5h.5V85h.5v.5h.5V86h.5v.5h.5V87h.5v.5h.5V88h.5v.5h.5V89h.5v.5h.5V90h.5v.5h.5V91h.5v.5h.2a32,32,0,0,1,27.84-15.12c7,0,13.36,2.06,18.51,7.21.17.16.34.33.5.5s.34.33.5.5.34.33.5.5a1.85,1.85,0,0,1,.14.14V22h25.74v.5h.5V23h.5v.5h.5V24h.5v.5h.5V25h.5v.5h.5V26h.5v.5h.5V27h.5v.5h.5V28h.5v.5h.5V29h.5v.5h.5V30h.5v.5h.5V31h.5v.5h.5V32h.5v.5h.5V33h.5v.5h.5V34h.5v.5h.5V35h.5v.5h.5V36h.5a17,17,0,0,1,9.95-3.2A16.78,16.78,0,0,1,346.45,38l.5.5.5.5.5.5.5.5.5.5.5.5.5.5.5.5.5.5.5.5.5.5.5.5.5.5.5.5.5.5.5.5.5.5.5.5.5.5.5.5.5.5.5.5.5.5.5.5.5.5.5.5.5.5.5.5.5.5.5.5.5.5.5.5.5.5.5.5.5.5.5.5.5.5.5.5.5.5.5.5.5.5.5.5.5.5.5.5.5.5.5.5.5.5.5.5.5.5.5.5.5.5.5.5.5.5.5.5.5.5.5.5.5.5.5.5.5.5.5.5.5.5.5.5.5.5.5.5.5.5.5.5.5.5.5.5.5.5.5.5.5.5.5.5.5.5.5.5.5.5.5.5.5.5.25.23A37.32,37.32,0,0,1,418.71,87.5l.5.5.5.5.5.5.5.5.5.5.5.5.5.5.5.5.5.5.5.5.5.5.5.5.5.5.5.5.5.5.5.5.5.5.5.5.5.5.5.5.5.5.5.5.5.5.5.5.5.5.5.5.5.5.5.5.5.5.5.5.5.5.5.5.5.5.5.5.5.5.5.5.5.5.5.5.5.5.5.5.5.5.5.5.5.5.5.5.5.5.5.5.5.5.5.5.5.5.5.5.5.5.5.5.5.5.5.5.5.5.5.5.5.5.5.5.5.5.5.5.5.5.5.5.5.5.5.5.5.5.5.5.5.5.5.5.5.5.5.5.5.5.5.5.5.5.5.5.5.5.5.5.5.5.5.5.5.5.5.5.5.5.5.5.5.5.5.5.5.5.5.5.5.5.5.5.5.5.5.5.5.5.5.5.5.5.5.5.5.5.5.5.5.5.5.5.5.5a37.68,37.68,0,0,1-26.34,64.57,37.4,37.4,0,0,1-25.06-9.68h0c-5.8,8.17-18.13,9.68-24.07,9.68a20.17,20.17,0,0,1-14.37-5.52c-.18-.16-.33-.34-.5-.5s-.33-.34-.5-.5-.33-.34-.5-.5-.33-.34-.5-.5l-.2-.2c-5.74,5.76-14.62,7.72-20.34,7.72A19.93,19.93,0,0,1,341,195.46c-.17-.16-.34-.33-.5-.5s-.34-.33-.5-.5-.34-.33-.5-.5-.34-.33-.5-.5-.34-.33-.5-.5-.34-.33-.5-.5-.34-.33-.5-.5-.34-.33-.5-.5-.34-.33-.5-.5a4.64,4.64,0,0,1-.39-.38c-5.51,7.74-12.92,11-21.64,11a32,32,0,0,1-23.13-9.21l0,0h0c-5.57,6.32-16.62,9.24-22.38,9.24a20.83,20.83,0,0,1-15.13-6.38c-.17-.16-.34-.33-.5-.5s-.34-.33-.5-.5-.34-.33-.5-.5-.34-.33-.5-.5-.34-.33-.5-.5-.34-.33-.5-.5-.34-.33-.5-.5l-.46-.46c-4.47,6.52-12.75,10.34-20.87,10.34-7.14,0-13-2.48-17.09-6.7l-.5-.5-.5-.5-.5-.5-.5-.5-.5-.5h0c-7,7.44-16.47,9-23.06,9-8.27,0-14.64-2.48-19-7-.17-.17-.34-.33-.5-.5s-.34-.33-.5-.5-.34-.33-.5-.5-.34-.33-.5-.5-.34-.33-.5-.5-.34-.33-.5-.5-.34-.33-.5-.5-.34-.33-.5-.5-.34-.33-.5-.5-.34-.33-.5-.5-.34-.33-.5-.5-.34-.33-.5-.5-.34-.33-.5-.5-.34-.33-.5-.5-.34-.33-.5-.5-.34-.33-.5-.5-.34-.33-.5-.5-.34-.33-.5-.5-.34-.33-.5-.5-.34-.33-.5-.5-.34-.33-.5-.5-.34-.33-.5-.5-.34-.33-.5-.5-.34-.33-.5-.5-.34-.33-.5-.5-.34-.33-.5-.5-.34-.33-.5-.5-.34-.33-.5-.5-.34-.33-.5-.5-.34-.33-.5-.5-.34-.33-.5-.5-.34-.33-.5-.5-.34-.33-.5-.5-.34-.33-.5-.5-.34-.33-.5-.5-.34-.33-.5-.5-.34-.33-.5-.5-.34-.33-.5-.5-.34-.33-.5-.5-.34-.33-.5-.5-.34-.33-.5-.5-.34-.33-.5-.5-.34-.33-.5-.5-.34-.33-.5-.5-.34-.33-.5-.5-.34-.33-.5-.5-.34-.33-.5-.5-.34-.33-.5-.5-.34-.33-.5-.5l-.14-.13c-1.37,20.36-16.38,31.64-36.78,31.64A33.28,33.28,0,0,1,86,195.46v-.17l-.5-.33v-.17l-.5-.33v-.17l-.5-.33v-.17l-.5-.33v-.17l-.5-.33v-.17l-.5-.33v-.17l-.5-.33v-.17l-.5-.33v-.17l-.5-.33v-.17l-.5-.33v-.17l-.5-.33v-.17l-.5-.33v-.17l-.5-.33v-.17l-.5-.33v-.17l-.5-.33v-.17l-.5-.33v-.17l-.5-.33v-.17l-.5-.33v-.17l-.5-.33v-.17l-.5-.33v-.17l-.5-.33v-.17l-.5-.33v-.17l-.5-.33v-.17l-.5-.33v-.17l-.5-.33v-.17l-.5-.33v-.17l-.5-.33v-.17l-.5-.33v-.17l-.5-.33v-.17l-.5-.33v-.17l-.5-.33v-.17l-.5-.33v-.17l-.5-.33v-.17l-.5-.33v-.17l-.5-.33v-.17l-.5-.33v-.17l-.5-.33v-.17l-.5-.33v-.17l-.5-.33v-.17l-.5-.33v-.17l-.5-.33v-.17l-.5-.33v-.17l-.5-.33v-.17l-.5-.33v-.17l-.5-.33v-.17l-.5-.33v-.17l-.5-.33v-.17l-.5-.33v-.17l-.5-.33v-.17l-.5-.33v-.17l-.5-.33v-.17l-.5-.33v-.17l-.5-.33v-.17l-.5-.33v-.17l-.5-.33v-.17l-.5-.33v-.17l-.5-.33v-.17l-.5-.33v-.17l-.5-.33v-.17l-.5-.33v-.17l-.5-.33v-.17l-.5-.33v-.17l-.5-.33v-.17l-.5-.33v-.17l-.5-.33v-.17l-.5-.33v-.17l-.5-.33v-.17l-.5-.33v-.17l-.5-.33v-.17l-.5-.33v-.17l-.5-.33v-.17l-.5-.33v-.17l-.5-.33v-.17l-.5-.33v-.17l-.5-.33v-.17l-.5-.33v-.17l-.5-.33v-.17l-.5-.33v-.17l-.5-.33v-.17l-.5-.33v-.17l-.5-.33v-.17l-.5-.33v-.17l-.5-.33v-.17l-.5-.33v-.17l-.5-.33v-.17l-.5-.33v-.17l-.5-.33v-.17l-.5-.33v-.17l-.5-.33v-.17l-.5-.33v-.17l-.5-.33v-.17l-.5-.33v-.17l-.5-.33v-.17l-.5-.33v-.17l-.5-.33v-.17l-.5-.33v-.17l-.5-.33v-.17l-.5-.33v-.17l-.5-.33v-.17l-.5-.33v-28.8c5.58,5,11.7,8.46,18.72,8.46,5.19,0,9.28-2.81,9.83-7.84l-.42-.41c-.16-.17-.33-.34-.5-.5s-.33-.34-.5-.5-.33-.34-.5-.5-.33-.34-.5-.5-.33-.34-.5-.5-.33-.34-.5-.5-.33-.34-.5-.5-.33-.34-.5-.5-.33-.34-.5-.5-.33-.34-.5-.5-.33-.34-.5-.5-.33-.34-.5-.5-.33-.34-.5-.5-.33-.34-.5-.5-.33-.34-.5-.5-.33-.34-.5-.5-.33-.34-.5-.5-.33-.34-.5-.5-.33-.34-.5-.5-.33-.34-.5-.5-.33-.34-.5-.5-.33-.34-.5-.5-.33-.34-.5-.5-.33-.34-.5-.5-.33-.34-.5-.5-.33-.34-.5-.5-.33-.34-.5-.5-.33-.34-.5-.5-.33-.34-.5-.5-.33-.34-.5-.5-.33-.34-.5-.5-.33-.34-.5-.5-.33-.34-.5-.5-.33-.34-.5-.5-.33-.34-.5-.5-.33-.34-.5-.5-.33-.34-.5-.5-.33-.34-.5-.5-.33-.34-.5-.5-.33-.34-.5-.5-.33-.34-.5-.5-.33-.34-.5-.5-.33-.34-.5-.5-.33-.34-.5-.5-.33-.34-.5-.5-.33-.34-.5-.5-.33-.34-.5-.5-.33-.34-.5-.5-.33-.34-.5-.5-.33-.34-.5-.5-.33-.34-.5-.5-.33-.34-.5-.5-.33-.34-.5-.5-.33-.34-.5-.5-.33-.34-.5-.5-.33-.34-.5-.5-.33-.34-.5-.5-.33-.34-.5-.5-.33-.34-.5-.5-.33-.34-.5-.5-.33-.34-.5-.5-.33-.34-.5-.5-.33-.34-.5-.5-.33-.34-.5-.5-.33-.34-.5-.5C25,77.76,20,69.6,20,58.52,20,34,40.52,20,63.56,20M110,119.93v-4.75h-.4v-.5h-.5v-.5h-.5v-.5h-.5v-.5h-.5v-.5h-.5v-.5h-.5v-.5h-.5v-.5h-.5v-.5h-.5v-.5h-.5v-.5h-.5v-.5h-.5v-.5h-.5v-.5h-.5v-.5h-.5v-.5h-.5v-.5h-.5v-.5h-.5v-.5h-.5v-.5h-.5v-.5h-.5v-.5h-.25a12.54,12.54,0,0,0-.59,3.8c0,.07,0,.14,0,.22l.11.11c.17.17.33.34.5.5s.33.34.5.5.33.34.5.5.33.34.5.5.33.34.5.5.33.34.5.5.33.34.5.5.33.34.5.5.33.34.5.5.33.34.5.5.33.34.5.5.33.34.5.5.33.34.5.5.33.34.5.5.33.34.5.5.33.34.5.5.33.34.5.5.33.34.5.5.33.34.5.5.33.34.5.5.33.34.5.5.33.34.5.5.33.34.5.5l.12.12M63.56,0C47.25,0,32,5.19,20.46,14.62,7.26,25.44,0,41,0,58.52c0,15,5.88,28.4,17.48,40,.16.15.31.31.47.47l0,0,.47.47,0,0L19,100l0,0,.47.47,0,0L20,101l0,0,.47.47,0,0L21,102l0,0,.47.47,0,0a2.28,2.28,0,0,1,.22.22,20,20,0,0,0-5.68,14v28.8a20,20,0,0,0,6.11,14.38l.5.5.5.5.5.5.5.5.5.5.5.5.5.5.5.5.5.5.5.5.5.5.5.5.5.5.5.5.5.5.5.5.5.5.5.5.5.5.5.5.5.5.5.5.5.5.5.5.5.5.5.5.5.5.5.5.5.5.5.5.5.5.5.5.5.5.5.5.5.5.5.5.5.5.5.5.5.5.5.5.5.5.5.5.5.5.5.5.5.5.5.5.5.5.5.5.5.5.5.5.5.5.5.5.5.5.5.5.5.5.5.5.5.5.5.5.5.5.5.5.5.5.5.5.5.5.5.5.5.5.5.5.5.5.5.5.5.5.5.5.5.5.5.5.5.5.5.5.5.5.5.5.5.5.5.5.5.5.5.5.5.5.5.5.5.5.5.5.5.5.5.5.5.5.5.5.5.5.5.5.5.5.5.5.5.5.5.5.5.5.5.5.5.5.5.5.5.5a19.92,19.92,0,0,0,2.86,2.46,53.24,53.24,0,0,0,31.33,9.59c17.85,0,32.86-6.33,43-17.18l.31.32c.17.16.33.33.5.5s.33.33.5.5.33.33.5.5.33.33.5.5.33.33.5.5.33.33.5.5.33.33.5.5l.51.5c5.84,5.93,16.28,12.86,33.17,12.86a54.83,54.83,0,0,0,22.26-4.52,45.23,45.23,0,0,0,20.4,4.7,47.05,47.05,0,0,0,20.65-4.79,41.36,41.36,0,0,0,19.31,4.79,55.85,55.85,0,0,0,22.3-5.17,53.65,53.65,0,0,0,23.24,5.17,46.68,46.68,0,0,0,21.57-5,41,41,0,0,0,19.82,5,54.4,54.4,0,0,0,19.41-3.77,41.67,41.67,0,0,0,17.5,3.77,60.74,60.74,0,0,0,24.91-5.38,57.64,57.64,0,0,0,64.72-93.31l-.5-.5-.5-.5-.5-.5-.5-.5-.5-.5-.5-.5-.5-.5-.5-.5-.5-.5-.5-.5-.5-.5-.5-.5-.5-.5-.5-.5-.5-.5-.5-.5-.5-.5-.5-.5-.5-.5-.5-.5-.5-.5-.5-.5-.5-.5-.5-.5-.5-.5-.5-.5-.5-.5-.5-.5-.5-.5-.5-.5-.5-.5-.5-.5-.5-.5-.5-.5-.5-.5-.5-.5-.5-.5-.5-.5-.5-.5-.5-.5-.5-.5-.5-.5-.5-.5-.5-.5-.5-.5-.5-.5-.5-.5-.5-.5-.5-.5-.5-.5-.5-.5-.5-.5-.5-.5-.5-.5-.5-.5-.5-.5-.5-.5-.5-.5-.5-.5-.5-.5-.5-.5-.5-.5-.5-.5-.5-.5-.5-.5-.5-.5-.5-.5-.5-.5-.5-.5-.5-.5-.5-.5-.5-.5-.5-.5-.5-.5-.5-.5-.5-.5-.5-.5-.5-.5-.5-.5-.5-.5-.5-.5-.5-.5-.5-.5-.5-.5-.5-.5-.5-.5-.5-.5-.5-.5-.5-.5-.5-.5-.5-.5-.5-.5-.5-.5-.5-.5-.5-.5-.5-.5-.5-.5-.5-.5-.48-.49a57,57,0,0,0-40-17.22l-.25-.25-.5-.5-.5-.5-.5-.5-.5-.5-.5-.5-.5-.5-.5-.5-.5-.5-.5-.5-.5-.5-.5-.5-.5-.5-.5-.5-.5-.5-.5-.5-.5-.5-.5-.5-.5-.5-.5-.5-.5-.5-.5-.5-.5-.5-.5-.5-.5-.5-.5-.5-.5-.5-.5-.5-.5-.5-.5-.5-.5-.5-.5-.5-.5-.5-.5-.5-.5-.5-.5-.5-.5-.5-.5-.5-.5-.5-.5-.5-.5-.5-.5-.5-.5-.5-.5-.5-.5-.5-.5-.5-.5-.5-.5-.5-.5-.5-.5-.5-.5-.5-.5-.5-.5-.5-.5-.5-.5-.5-.5-.5-.5-.5-.5-.5-.5-.5-.5-.5-.5-.5-.5-.5-.5-.5-.5-.5-.48-.48a36.82,36.82,0,0,0-30.94-10.88c-.15-.16-.31-.32-.47-.47l-.5-.5-.5-.5-.5-.5-.5-.5-.5-.5-.5-.5-.5-.5-.5-.5-.5-.5A19.92,19.92,0,0,0,310.33,2H284.59a20,20,0,0,0-20,20V56.34h-.15a53,53,0,0,0-27.14,7.24A19.93,19.93,0,0,0,223.4,58H197.66a19.92,19.92,0,0,0-8.46,1.87A20,20,0,0,0,180.74,58H173.9l-.27-.27c-.17-.17-.33-.34-.5-.5s-.33-.34-.5-.5-.33-.34-.5-.5-.33-.34-.5-.5-.33-.34-.5-.5-.33-.34-.5-.5-.33-.34-.5-.5-.33-.34-.5-.5-.33-.34-.5-.5-.33-.34-.5-.5-.33-.34-.5-.5-.33-.34-.5-.5-.33-.34-.5-.5-.33-.34-.5-.5-.33-.34-.5-.5-.33-.34-.5-.5-.33-.34-.5-.5-.33-.34-.5-.5-.33-.34-.5-.5-.33-.34-.5-.5-.33-.34-.5-.5-.33-.34-.5-.5-.33-.34-.5-.5-.33-.34-.5-.5-.33-.34-.5-.5-.33-.34-.5-.5-.33-.34-.5-.5-.33-.34-.5-.5-.33-.34-.5-.5-.33-.34-.5-.5-.33-.34-.5-.5-.33-.34-.5-.5-.33-.34-.5-.5-.33-.34-.5-.5-.33-.34-.5-.5-.33-.34-.5-.5-.33-.34-.5-.5-.33-.34-.5-.5-.33-.34-.5-.5-.33-.34-.5-.5-.33-.34-.5-.5-.33-.34-.5-.5-.33-.34-.5-.5-.33-.34-.5-.5-.33-.34-.5-.5-.33-.34-.5-.5-.33-.34-.5-.5a19.94,19.94,0,0,0-14.39-6.11H119.48l-.25-.24,0,0-.48-.48,0,0-.48-.48,0,0-.48-.48,0,0-.48-.48,0,0-.48-.48,0,0-.48-.48,0,0-.48-.48,0,0-.48-.48,0,0-.48-.48,0,0-.48-.48,0,0-.48-.48,0,0-.48-.48,0,0-.48-.48,0,0-.48-.48,0,0-.48-.48,0,0-.48-.48,0,0-.48-.48,0,0c-.16-.16-.31-.32-.48-.48C98.71,7,81.28,0,63.56,0Z"/><path class="cls-3" d="M470.27,277.8V254.58h-.5v-.5h-.5v-.5h-.5v-.5h-.5v-.5h-.5v-.5h-.5v-.5h-.5v-.5h-.5v-.5h-.5v-.5h-.5v-.5h-.5v-.5h-.5v-.5h-.5v-.5h-.5v-.5h-.5v-.5h-.5v-.5h-.5v-.5h-.5v-.5h-.5v-.5h-.5v-.5h-.5v-.5h-.5v-.5h-.5v-.5h-.5v-.5h-.5v-.5h-.5v-.5h-.5v-.5h-.5v-.5h-.5v-.5h-.5v-.5h-.5v-.5h-.5v-.5h0V224.7h-.5v-.5h-.5v-.5h-.5v-.5h-.5v-.5h-.5v-.5h-.5v-.5h-.5v-.5h-.5v-.5h-.5v-.5h-.5v-.5h-.5v-.5h-.5v-.5h-.5v-.5h-.5v-.5h-.5v-.5h-.5v-.5h-.5v-.5h-.5v-.5h-.5v-.5h-.5v-.5h-.5v-.5h-.5v-.5h-.5v-.5h-.5v-.5h-.5v-.5h-.5v-.5h-.5v-.5h-.5v-.5h-.5v-.5h-.5v-.5h-.5v-.5h-.5v-.5h-.5v-.5h-.5v-.5h-.5v-.5h-.5v-.5h-.5v-.5h-.5v-.5h-.5v-.5h-.5v-.5h-.5v-.5h-.5v-.5h-.5v-.5h-.5v-.5h-.5v-.5h-.5v-.5h-.5v-.5h-.5v-.5h-.5v-.5h-.5v-.5h-.5v-.5h-.5v-.5h-.5v-.5h-.5v-.5h-.5v-.5h-.5v-.5h-.5v-.5h-.5v-.5h-.5v-.5h-.5v-.5h-.5v-.5h-.5v-.5h-.5v-.5h-.5v-.5h-.5v-.5h-.5v-.5h-.5v-.5h-.5v-.5h-.5v-.5h-.5v-.5h-.5v-.5h-.5v-.5h-.5v-.5h-.5v-.5h-.5v-.5h-.5v-.5h-.5v-.5h-.5v-.5h-.5v-.5h-.5v-.5h-.5v-.5h-.5v-.5h-.5v-.5h-.5v-.5h-.5v-.5h-.5v-.5h-.5v-.5h-.5v-.5h-.5v-.5h-.5v-.5h-.5v-.5h-.5v-.5h-.5v-.5h-.5v-.5h-.5v-.5h-.5v-.5h-.5v-.5h-.5v-.5h-.5v-.5h-.5v-.5H378.51v8.57l-.11-.1-.5-.5-.5-.5-.5-.5-.5-.5-.5-.5-.5-.5-.5-.5-.5-.5-.5-.5-.5-.5-.5-.5-.5-.5-.5-.5-.5-.5-.5-.5-.5-.5-.5-.5-.5-.5-.5-.5-.5-.5-.5-.5-.5-.5-.5-.5-.5-.5-.5-.5-.5-.5-.5-.5-.5-.5-.5-.5-.5-.5-.5-.5-.5-.5-.5-.5-.5-.5-.5-.5-.5-.5-.5-.5a16.77,16.77,0,0,0-12.17-5.27,17.09,17.09,0,0,0-17.1,17.1A17.38,17.38,0,0,0,335.92,189c.16.17.33.33.5.5s.33.33.5.5.33.33.5.5.33.33.5.5.33.33.5.5.33.33.5.5.33.33.5.5.33.33.5.5.33.33.5.5.33.33.5.5.33.33.5.5.33.33.5.5.33.33.5.5.33.33.5.5.33.33.5.5.33.33.5.5.33.33.5.5.33.33.5.5.33.33.5.5.33.33.5.5.33.33.5.5.33.33.5.5.33.33.5.5.33.33.5.5.33.33.5.5.33.33.5.5.33.33.5.5.33.33.5.5.33.33.5.5.33.33.5.5.33.33.5.5l.12.13H335v22.74c-.11-.11-.21-.22-.32-.32s-.33-.34-.5-.5-.33-.34-.5-.5-.33-.34-.5-.5-.33-.34-.5-.5-.33-.34-.5-.5-.33-.34-.5-.5-.33-.34-.5-.5-.33-.34-.5-.5-.33-.34-.5-.5-.33-.34-.5-.5-.33-.34-.5-.5-.33-.34-.5-.5-.33-.34-.5-.5-.33-.34-.5-.5-.33-.34-.5-.5-.33-.34-.5-.5-.33-.34-.5-.5-.33-.34-.5-.5-.33-.34-.5-.5-.33-.34-.5-.5-.33-.34-.5-.5-.33-.34-.5-.5-.33-.34-.5-.5-.33-.34-.5-.5-.33-.34-.5-.5-.33-.34-.5-.5-.33-.34-.5-.5-.33-.34-.5-.5-.33-.34-.5-.5-.33-.34-.5-.5-.33-.34-.5-.5-.33-.34-.5-.5-.33-.34-.5-.5-.33-.34-.5-.5-.33-.34-.5-.5c-4-4.13-9.78-6.54-16.92-6.54a24.21,24.21,0,0,0-14.13,4.34.86.86,0,0,0-.14-.13l-.5-.5-.5-.5-.5-.5-.5-.5-.5-.5-.5-.5-.5-.5-.5-.5-.5-.5-.5-.5-.5-.5-.5-.5-.5-.5-.5-.5-.5-.5-.5-.5-.5-.5-.5-.5-.5-.5-.5-.5-.5-.5-.5-.5-.5-.5-.5-.5-.5-.5-.5-.5-.5-.5-.5-.5-.5-.5-.5-.5-.5-.5-.5-.5-.5-.5-.5-.5-.5-.5-.5-.5-.5-.5-.5-.5-.5-.5-.5-.5-.5-.5-.5-.5-.5-.5-.5-.5-.5-.5-.5-.5-.5-.5-.5-.5-.5-.5-.5-.5-.5-.5-.5-.5-.5-.5-.5-.5-.5-.5-.5-.5-.5-.5-.5-.5-.5-.5-.5-.5-.5-.5-.5-.5-.5-.5-.5-.5-.5-.5-.5-.5-.5-.5-.5-.5-.5-.5-.5-.5-.5-.5-.5-.5-.5-.5-.5-.5-.5-.5-.5-.5-.5-.5-.5-.5-.5-.5-.5-.5-.5-.5-.5-.5-.5-.5-.5-.5-.5-.5a16.75,16.75,0,0,0-12.17-5.27,17.09,17.09,0,0,0-17.1,17.1A17.38,17.38,0,0,0,219.46,189c.16.17.33.33.5.5s.33.33.5.5.33.33.5.5.33.33.5.5.33.33.5.5.33.33.5.5.33.33.5.5.33.33.5.5.33.33.5.5.33.33.5.5.33.33.5.5.33.33.5.5.33.33.5.5.33.33.5.5.33.33.5.5.33.33.5.5.33.33.5.5.33.33.5.5.33.33.5.5.33.33.5.5.33.33.5.5.33.33.5.5.33.33.5.5.33.33.5.5.33.33.5.5.33.33.5.5.33.33.5.5.33.33.5.5.33.33.5.5.33.33.5.5.33.33.5.5l.12.13H218.49v49.68c0,8.2,2.74,14.75,7.37,18.91.17.17.33.35.5.5s.33.35.5.5.33.35.5.5.33.35.5.5.33.35.5.5.33.35.5.5.33.35.5.5.33.35.5.5.33.35.5.5.33.35.5.5.33.35.5.5.33.35.5.5.33.35.5.5.33.35.5.5.33.35.5.5.33.35.5.5.33.35.5.5.33.35.5.5.33.35.5.5.33.35.5.5.33.35.5.5.33.35.5.5.33.35.5.5.33.35.5.5.33.35.5.5.33.35.5.5.33.35.5.5.33.35.5.5.33.35.5.5.33.35.5.5.33.35.5.5.33.35.5.5.33.35.5.5.33.35.5.5.33.35.5.5.33.35.5.5.33.35.5.5.33.35.5.5.33.35.5.5.33.35.5.5.33.35.5.5.33.35.5.5.33.35.5.5.33.35.5.5.33.35.5.5.33.35.5.5.33.35.5.5.33.35.5.5.33.35.5.5.33.35.5.5.33.35.5.5.33.35.5.5.33.35.5.5.33.35.5.5.33.35.5.5.33.35.5.5.33.35.5.5.33.35.5.5.33.35.5.5.33.35.5.5.33.35.5.5.33.35.5.5.33.35.5.5.33.35.5.5.33.35.5.5.33.35.5.5.33.35.5.5.33.35.5.5.33.35.5.5.33.35.5.5.33.35.5.5.33.35.5.5.33.35.5.5.33.35.5.5.33.35.5.5.33.35.5.5.33.35.5.5.33.35.5.5.33.35.5.5.33.35.5.5.33.35.5.5.33.35.5.5.33.35.5.5.33.35.5.5.33.35.5.5.33.35.5.5.33.35.5.5.33.35.5.5.33.35.5.5.33.35.5.5.33.35.5.5.33.35.5.5.33.35.5.5.33.35.5.5.33.35.5.5.33.35.5.5.33.35.5.5.33.35.5.5.33.35.5.5a20.18,20.18,0,0,0,14.37,5.53,25.89,25.89,0,0,0,13.9-3.8h.26v.5h.5v.5h.5v.5h.5v.5h25.74V298.88l.29.29c.17.17.32.35.5.5s.32.35.5.5.32.35.5.5.32.35.5.5.32.35.5.5.32.35.5.5.32.35.5.5.32.35.5.5.32.35.5.5.32.35.5.5.32.35.5.5.32.35.5.5.32.35.5.5.32.35.5.5.32.35.5.5.32.35.5.5.32.35.5.5.32.35.5.5.32.35.5.5.32.35.5.5.32.35.5.5.32.35.5.5.32.35.5.5.32.35.5.5.32.35.5.5.32.35.5.5.32.35.5.5.32.35.5.5.32.35.5.5.32.35.5.5.32.35.5.5.32.35.5.5.32.35.5.5.32.35.5.5.32.35.5.5.32.35.5.5.32.35.5.5.32.35.5.5.32.35.5.5.32.35.5.5.32.35.5.5.32.35.5.5.32.35.5.5.32.35.5.5.32.35.5.5.32.35.5.5.32.35.5.5a20.18,20.18,0,0,0,14.37,5.53c5.9,0,12.53-.86,20.25-7.8.1.09.18.19.28.27s.32.35.5.5.32.35.5.5.32.35.5.5.32.35.5.5a20.18,20.18,0,0,0,14.37,5.53c5.87,0,17.57-.59,26.67-10.08a4.68,4.68,0,0,0,.39.38l.5.5.5.5.5.5.5.5.5.5c4.39,4.54,10.76,7,19,7,6.66,0,11-1.62,15.48-5V303l-.5.26v-.76l-.5.26V302l-.5.26v-.76l-.5.26V301l-.5.26v-.76l-.5.26V300l-.5.26v-.76l-.5.26V299l-.5.26v-.76l-.5.26V298l-.5.26v-.76l-.5.26V297l-.5.26v-.76l-.5.26V296l-.5.26v-.76l-.5.26V295l-.5.26v-.76l-.5.26V294l-.5.26v-.76l-.5.26V293l-.5.26v-.76l-.5.26V292l-.5.26v-.76l-.5.26V291l-.5.26v-.76l-.5.26V290l-.5.26v-.76l-.5.26V289l-.5.26v-.76l-.5.26V288l-.5.26v-.76l-.5.26V287h0V277.8Z"/><rect class="cls-1" x="264.28" y="174.7" width="131.77" height="66.69"/><path class="cls-4" d="M257.52,298.7l-.5-.5-.5-.5-.5-.5-.5-.5-.5-.5-.5-.5-.5-.5-.5-.5-.5-.5-.5-.5-.5-.5-.5-.5-.5-.5-.5-.5-.5-.5-.5-.5-.5-.5-.5-.5-.5-.5-.5-.5-.5-.5-.5-.5-.5-.5-.5-.5-.5-.5-.5-.5-.5-.5-.5-.5-.5-.5-.5-.5-.5-.5-.5-.5-.5-.5-.5-.5-.5-.5-.5-.5-.5-.5-.5-.5-.5-.5-.5-.5-.5-.5-.5-.5-.5-.5-.5-.5-.5-.5-.5-.5-.5-.5-.5-.5-.5-.5-.5-.5-.5-.5-.5-.5-.5-.5-.5-.5-.5-.5-.5-.5-.5-.5-.5-.5-.5-.5-.5-.5-.5-.5-.5-.5-.5-.5-.5-.5-.5-.5-.5-.5-.5-.5-.5-.5-.5-.5-.5-.5-.5-.5-.5-.5-.5-.5-.5-.5-.5-.5-.5-.5-.5-.5-.5-.5-.5-.5-.5-.5-.5-.5-.5-.5-.5-.5-.5-.5-.5-.5-.5-.5-.5-.5-.5-.5-.5-.5-.5-.5-.5-.5-.5-.5-.5-.5-.5-.5-.5-.5-.5-.5-.5-.5-.5-.5-.5-.5A16.68,16.68,0,0,0,195.8,244a17,17,0,0,0-17.1,17.28,16.78,16.78,0,0,0,5.21,12.19l.5.5.5.5.5.5.5.5.5.5.5.5.5.5.5.5.5.5.5.5.5.5.5.5.5.5.5.5.5.5.5.5.5.5.5.5.5.5.5.5.5.5.5.5.5.5.5.5.5.5.5.5.5.5.5.5.5.5.5.5.5.5.5.5.5.5.5.5.5.5.5.5.5.5.5.5.5.5.5.5.5.5.5.5.5.5.5.5.5.5.5.5.5.5.5.5.5.5.5.5.5.5.5.5.5.5.5.5.5.5.5.5.5.5.5.5.5.5.5.5.5.5.5.5.5.5.5.5.5.5.5.5.5.5.5.5.5.5.5.5.5.5.5.5.5.5.5.5.5.5.5.5.5.5.5.5.5.5.5.5.5.5.5.5.5.5.5.5.5.5.5.5.5.5.5.5.5.5.5.5.5.5.5.5.5.5.5.5.5.5.5.5.5.5.5.5.5.5a17.11,17.11,0,0,0,12.39,5.23,16.79,16.79,0,0,0,16.92-16.92A17.37,17.37,0,0,0,257.52,298.7Z"/><path class="cls-5" d="M468.21,137l-.5-.5-.5-.5-.5-.5-.5-.5-.5-.5-.5-.5-.5-.5-.5-.5-.5-.5-.5-.5-.5-.5-.5-.5-.5-.5-.5-.5-.5-.5-.5-.5-.5-.5-.5-.5-.5-.5-.5-.5-.5-.5-.5-.5-.5-.5-.5-.5-.5-.5-.5-.5-.5-.5-.5-.5-.5-.5-.5-.5-.5-.5-.5-.5-.5-.5-.5-.5-.5-.5-.5-.5-.5-.5-.5-.5-.5-.5-.5-.5-.5-.5-.5-.5-.5-.5-.5-.5-.5-.5-.5-.5-.5-.5-.5-.5-.5-.5-.5-.5-.5-.5-.5-.5-.5-.5-.5-.5-.5-.5-.5-.5-.5-.5-.5-.5-.5-.5-.5-.5-.5-.5-.5-.5-.5-.5-.5-.5-.5-.5-.5-.5-.5-.5-.5-.5-.5-.5-.5-.5-.5-.5-.5-.5-.5-.5-.5-.5-.5-.5-.5-.5-.5-.5-.5-.5-.5-.5-.5-.5-.5-.5-.5-.5-.5-.5-.5-.5-.5-.5-.5-.5-.5-.5-.5-.5-.5-.5-.5-.5-.5-.5-.5-.5-.5-.5-.5-.5-.5-.5-.5-.5-.5-.5-.5-.5-.5-.5A37.32,37.32,0,0,0,385.2,76.77l-.25-.23-.5-.5-.5-.5-.5-.5-.5-.5-.5-.5-.5-.5-.5-.5-.5-.5-.5-.5-.5-.5-.5-.5-.5-.5-.5-.5-.5-.5-.5-.5-.5-.5-.5-.5-.5-.5-.5-.5-.5-.5-.5-.5-.5-.5-.5-.5-.5-.5-.5-.5-.5-.5-.5-.5-.5-.5-.5-.5-.5-.5-.5-.5-.5-.5-.5-.5-.5-.5-.5-.5-.5-.5-.5-.5-.5-.5-.5-.5-.5-.5-.5-.5-.5-.5-.5-.5-.5-.5-.5-.5-.5-.5-.5-.5-.5-.5-.5-.5-.5-.5-.5-.5-.5-.5-.5-.5-.5-.5-.5-.5-.5-.5-.5-.5-.5-.5-.5-.5-.5-.5-.5-.5-.5-.5-.5-.5-.5-.5-.5-.5-.5-.5-.5-.5-.5-.5-.5-.5-.5-.5-.5-.5-.5-.5-.5-.5-.5-.5-.5-.5-.5-.5-.5-.5a16.78,16.78,0,0,0-12.17-5.26,17,17,0,0,0-9.95,3.2h-.5v-.5h-.5V35h-.5v-.5h-.5V34h-.5v-.5h-.5V33h-.5v-.5h-.5V32h-.5v-.5h-.5V31h-.5v-.5h-.5V30h-.5v-.5h-.5V29h-.5v-.5h-.5V28h-.5v-.5h-.5V27h-.5v-.5h-.5V26h-.5v-.5h-.5V25h-.5v-.5h-.5V24h-.5v-.5h-.5V23h-.5v-.5h-.5V22H284.59V85.19a1.85,1.85,0,0,0-.14-.14c-.16-.17-.33-.34-.5-.5s-.33-.34-.5-.5-.33-.34-.5-.5c-5.15-5.15-11.53-7.21-18.51-7.21A32,32,0,0,0,236.6,91.46h-.2V91h-.5v-.5h-.5V90h-.5v-.5h-.5V89h-.5v-.5h-.5V88h-.5v-.5h-.5V87h-.5v-.5h-.5V86h-.5v-.5h-.5V85h-.5v-.5h-.5V84h-.5v-.5h-.5V83h-.5v-.5h-.5V82h-.5v-.5h-.5V81h-.5v-.5h-.5V80h-.5v-.5h-.5V79h-.5v-.5h-.5V78H197.66V95h-.42v-.5h-.5V94h-.5v-.5h-.5V93h-.5v-.5h-.5V92h-.5v-.5h-.5V91h-.5v-.5h-.5V90h-.5v-.5h-.5V89h-.5v-.5h-.5V88h-.5v-.5h-.5V87h-.5v-.5h-.5V86h-.5v-.5h-.5V85h-.5v-.5h-.5V84h-.5v-.5h-.5V83h-.5v-.5h-.5V82h-.5v-.5h-.5V81h-.5v-.5h-.5V80h-.5v-.5h-.5V79h-.5v-.5h-.5V78h-15.5v-.38h-.5v-.5h-.5v-.5h-.5v-.5h-.5v-.5h-.5v-.5h-.5v-.5h-.5v-.5h-.5v-.5h-.5v-.5h-.5v-.5h-.5v-.5h-.5v-.5h-.5v-.5h-.5v-.5h-.5v-.5h-.5v-.5h-.5v-.5h-.5v-.5h-.5v-.5h-.5v-.5h-.5v-.5h-.5v-.5h-.5v-.5h-.5v-.5h-.5v-.5h-.5v-.5h-.5v-.5h-.5v-.5h-.5v-.5h-.5v-.5h-.5v-.5h-.5v-.5h-.5v-.5h-.5v-.5h-.5v-.5h-.5v-.5h-.5v-.5h-.5v-.5h-.5v-.5h-.5v-.5h-.5v-.5h-.5v-.5h-.5v-.5h-.5v-.5h-.5v-.5h-.5v-.5h-.5v-.5h-.5v-.5h-.5v-.5h-.5v-.5h-.5v-.5h-.5v-.5h-.5v-.5h-.5v-.5h-.5v-.5h-.5v-.5h-.5v-.5h-.5v-.5h-.5v-.5H111.19l-.16-.16c-.16-.17-.33-.34-.5-.5s-.33-.34-.5-.5-.33-.34-.5-.5-.33-.34-.5-.5-.33-.34-.5-.5-.33-.34-.5-.5-.33-.34-.5-.5-.33-.34-.5-.5-.33-.34-.5-.5-.33-.34-.5-.5-.33-.34-.5-.5-.33-.34-.5-.5-.33-.34-.5-.5-.33-.34-.5-.5-.33-.34-.5-.5-.33-.34-.5-.5-.33-.34-.5-.5-.33-.34-.5-.5-.33-.34-.5-.5-.33-.34-.5-.5-.33-.34-.5-.5-.33-.34-.5-.5-.33-.34-.5-.5-.33-.34-.5-.5-.33-.34-.5-.5-.33-.34-.5-.5-.33-.34-.5-.5-.33-.34-.5-.5-.33-.34-.5-.5-.33-.34-.5-.5C87.94,24.56,75.49,20,63.56,20,40.52,20,20,34,20,58.52c0,11.08,5,19.24,11.65,25.85.17.16.34.33.5.5s.34.33.5.5.34.33.5.5.34.33.5.5.34.33.5.5.34.33.5.5.34.33.5.5.34.33.5.5.34.33.5.5.34.33.5.5.34.33.5.5.34.33.5.5.34.33.5.5.34.33.5.5.34.33.5.5.34.33.5.5.34.33.5.5.34.33.5.5.34.33.5.5.34.33.5.5.34.33.5.5.34.33.5.5.34.33.5.5.34.33.5.5.34.33.5.5.34.33.5.5.34.33.5.5.34.33.5.5.34.33.5.5.34.33.5.5.34.33.5.5.34.33.5.5.34.33.5.5.34.33.5.5.34.33.5.5.34.33.5.5.34.33.5.5.34.33.5.5.34.33.5.5.34.33.5.5.34.33.5.5.34.33.5.5.34.33.5.5.34.33.5.5.34.33.5.5.34.33.5.5.34.33.5.5.34.33.5.5.34.33.5.5.34.33.5.5.34.33.5.5.34.33.5.5.34.33.5.5.34.33.5.5.34.33.5.5.34.33.5.5.34.33.5.5.34.33.5.5.34.33.5.5.34.33.5.5.34.33.5.5.34.33.5.5.34.33.5.5.34.33.5.5.34.33.5.5l.42.41c-.55,5-4.64,7.84-9.83,7.84-7,0-13.14-3.42-18.72-8.46v28.79l.5.34V146l.5.34v.16l.5.34V147l.5.34v.16l.5.34V148l.5.34v.16l.5.34V149l.5.34v.16l.5.34V150l.5.34v.16l.5.34V151l.5.34v.16l.5.34V152l.5.34v.16l.5.34V153l.5.34v.16l.5.34V154l.5.34v.16l.5.34V155l.5.34v.16l.5.34V156l.5.34v.16l.5.34V157l.5.34v.16l.5.34V158l.5.34v.16l.5.34V159l.5.34v.16l.5.34V160l.5.34v.16l.5.34V161l.5.34v.16l.5.34V162l.5.34v.16l.5.34V163l.5.34v.16l.5.34V164l.5.34v.16l.5.34V165l.5.34v.16l.5.34V166l.5.34v.16l.5.34V167l.5.34v.16l.5.34V168l.5.34v.16l.5.34V169l.5.34v.16l.5.34V170l.5.34v.16l.5.34V171l.5.34v.16l.5.34V172l.5.34v.16l.5.34V173l.5.34v.16l.5.34V174l.5.34v.16l.5.34V175l.5.34v.16l.5.34V176l.5.34v.16l.5.34V177l.5.34v.16l.5.34V178l.5.34v.16l.5.34V179l.5.34v.16l.5.34V180l.5.34v.16l.5.34V181l.5.34v.16l.5.34V182l.5.34v.16l.5.34V183l.5.34v.16l.5.34V184l.5.34v.16l.5.34V185l.5.34v.16l.5.34V186l.5.34v.16l.5.34V187l.5.34v.16l.5.34V188l.5.34v.16l.5.34V189l.5.34v.16l.5.34V190l.5.34v.16l.5.34V191l.5.34v.16l.5.34V192l.5.34v.16l.5.34V193l.5.34v.16l.5.34V194l.5.34v.16l.5.34V195l.5.34v.16a33.22,33.22,0,0,0,19.8,5.94c20.4,0,35.41-11.28,36.78-31.64l.14.13c.16.17.33.33.5.5s.33.33.5.5.33.33.5.5.33.33.5.5.33.33.5.5.33.33.5.5.33.33.5.5.33.33.5.5.33.33.5.5.33.33.5.5.33.33.5.5.33.33.5.5.33.33.5.5.33.33.5.5.33.33.5.5.33.33.5.5.33.33.5.5.33.33.5.5.33.33.5.5.33.33.5.5.33.33.5.5.33.33.5.5.33.33.5.5.33.33.5.5.33.33.5.5.33.33.5.5.33.33.5.5.33.33.5.5.33.33.5.5.33.33.5.5.33.33.5.5.33.33.5.5.33.33.5.5.33.33.5.5.33.33.5.5.33.33.5.5.33.33.5.5.33.33.5.5.33.33.5.5.33.33.5.5.33.33.5.5.33.33.5.5.33.33.5.5.33.33.5.5.33.33.5.5.33.33.5.5.33.33.5.5.33.33.5.5.33.33.5.5c4.4,4.53,10.77,7,19,7,6.59,0,16.07-1.59,23.06-9h0l.5.5.5.5.5.5.5.5.5.5c4.12,4.22,10,6.7,17.09,6.7,8.12,0,16.4-3.82,20.87-10.34l.46.46c.16.17.33.34.5.5s.33.34.5.5.33.34.5.5.33.34.5.5.33.34.5.5.33.34.5.5.33.34.5.5a20.83,20.83,0,0,0,15.13,6.38c5.76,0,16.81-2.92,22.38-9.24h0l0,0a32,32,0,0,0,23.13,9.21c8.72,0,16.13-3.25,21.64-11a4.64,4.64,0,0,0,.39.38c.16.17.33.34.5.5s.33.34.5.5.33.34.5.5.33.34.5.5.33.34.5.5.33.34.5.5.33.34.5.5.33.34.5.5.33.34.5.5a19.93,19.93,0,0,0,14.86,6.11c5.72,0,14.6-2,20.34-7.72l.2.2c.17.16.32.34.5.5s.32.34.5.5.32.34.5.5.32.34.5.5a20.17,20.17,0,0,0,14.37,5.52c5.94,0,18.27-1.51,24.07-9.68h0A37.52,37.52,0,0,0,479.49,164,37.81,37.81,0,0,0,468.21,137ZM109.38,119.31c-.17-.16-.33-.33-.5-.5s-.33-.33-.5-.5-.33-.33-.5-.5-.33-.33-.5-.5-.33-.33-.5-.5-.33-.33-.5-.5-.33-.33-.5-.5-.33-.33-.5-.5-.33-.33-.5-.5-.33-.33-.5-.5-.33-.33-.5-.5-.33-.33-.5-.5-.33-.33-.5-.5-.33-.33-.5-.5-.33-.33-.5-.5-.33-.33-.5-.5-.33-.33-.5-.5-.33-.33-.5-.5-.33-.33-.5-.5-.33-.33-.5-.5-.33-.33-.5-.5-.33-.33-.5-.5l-.11-.11c0-.08,0-.15,0-.22a12.49,12.49,0,0,1,.59-3.8h.25v.5h.5v.5h.5v.5h.5v.5h.5v.5h.5v.5h.5v.5h.5v.5h.5v.5h.5v.5h.5v.5h.5v.5h.5v.5h.5v.5h.5v.5h.5v.5h.5v.5h.5v.5h.5v.5h.5v.5h.5v.5h.5v.5h.4v4.75l-.12-.12C109.71,119.65,109.55,119.48,109.38,119.31Z"/><path class="cls-2" d="M214.6,176.5a17,17,0,1,1,17.1,17.28A17.09,17.09,0,0,1,214.6,176.5Zm25.56,101.7c-12.6,0-21.24-9.36-21.24-23.94V204.58h25.56V250.3c0,3.6,2.7,5.22,5.4,5.22a9.56,9.56,0,0,0,6.3-2.16V273A25.89,25.89,0,0,1,240.16,278.2Z"/><path class="cls-2" d="M335.38,251.9l4.73,18.37c-7.78,7.06-14.45,7.93-20.39,7.93-12.6,0-21.24-9.36-21.24-23.94v-21.6c0-5-2.7-8.46-7.56-8.46-4.68,0-8.28,3.6-9.36,8.82V276.4H255.82V204.58h25.74V212a23.83,23.83,0,0,1,19.08-9c14.76,0,23.58,10.26,23.58,24.84v22.5c0,3.6,2.52,5.22,5.4,5.22C332,255.52,335.38,254.26,335.38,251.9Z"/><path class="cls-2" d="M331.06,176.5a17,17,0,1,1,17.1,17.28A17.09,17.09,0,0,1,331.06,176.5Zm25.56,101.7c-12.6,0-21.24-9.36-21.24-23.94V204.58h25.56V250.3c0,3.6,2.7,5.22,5.4,5.22,2.52,0,12.84-1.25,12.6-6.12l4.67,18.4C374.47,277.62,362.56,278.2,356.62,278.2Z"/><path class="cls-2" d="M378.94,249.4V227.8H363.67V204.58h15.27V174.7h25.74v29.88h16V227.8h-16v18.72c0,5,1.8,9,7.38,9A17.92,17.92,0,0,0,420.7,253v20c-4.5,3.42-8.82,5-15.48,5C387.94,278,378.94,267.22,378.94,249.4Z"/><path class="cls-2" d="M36,145.45V116.66c5.58,5,11.7,8.46,18.72,8.46,5.58,0,9.9-3.24,9.9-9C64.64,98.66,20,91.64,20,58.52,20,34,40.52,20,63.56,20c20,0,41.4,12.78,41.4,34.74a27.73,27.73,0,0,1-17.82,26.1L69,65c3.78-1.44,7.38-4.32,7.38-9.18,0-7.38-6.12-11.16-13.14-11.16-8.46,0-14.94,5.76-14.94,13.32,0,17.64,44.46,26.64,44.46,58.68,0,22.31-15.48,34.73-36.9,34.73A33.22,33.22,0,0,1,36,145.45Z"/><path class="cls-2" d="M110,122.78v-21.6H95.6V78H110V48.08h25.74V78h16v23.22h-16V119.9c0,5,1.8,8.95,7.38,9S155,127,155,123.78l4.57,18.34c-7,7.65-16.63,9.27-23.29,9.27C119,151.39,110,140.59,110,122.78Z"/><path class="cls-2" d="M234.91,126.74l6.37,15.59c-5.57,6.32-16.62,9.24-22.38,9.24a20.66,20.66,0,0,1-18.54-11.16c-4.32,7-13,11.16-21.42,11.16-14.76,0-23.94-10.62-23.94-25.2V78h25.74v43.56c0,5,2.52,8.64,7.56,8.64,4.68,0,8.28-3.6,9.36-9V78H223.4v45.72c0,3.6,2.52,5.22,5.4,5.22A9.37,9.37,0,0,0,234.91,126.74Z"/><path class="cls-2" d="M315.73,128.9c-2.88,0-5.4-1.62-5.4-5.22V22H284.59V85.34c-5.39-6.48-12.41-9-20.15-9-21.24,0-34,17.46-34,37.44,0,20.51,12.78,37.79,34,37.79,9.18,0,16.92-3.6,22.49-12.24a19.86,19.86,0,0,0,18.9,12.24c5.76,0,14.73-2,20.47-7.84l-4.8-18.83C321.5,127.64,318.07,128.9,315.73,128.9Zm-31.14-7.56a15,15,0,0,1-13.67,8.82c-8.64,0-14.94-7-14.94-16.38,0-9.18,6.3-16.2,14.94-16.2a14.8,14.8,0,0,1,13.67,8.82Z"/><path class="cls-2" d="M317.18,49.88a17,17,0,1,1,17.1,17.28A17.09,17.09,0,0,1,317.18,49.88Z"/><path class="cls-2" d="M342.74,151.57c-12.6,0-21.24-9.36-21.24-23.93V78h25.56v45.72c0,3.6,2.7,5.22,5.4,5.22a9.51,9.51,0,0,0,6.29-2.16l8.06,15.15C361,150.06,348.68,151.57,342.74,151.57Z"/><path class="cls-2" d="M178.7,261.28A17,17,0,0,1,195.8,244c9.54,0,16.92,7.56,16.92,17.28a17,17,0,0,1-34,0Z"/><path class="cls-2" d="M391.87,98.16a15.62,15.62,0,1,1-15.62,15.62,15.63,15.63,0,0,1,15.62-15.62m0-22a37.62,37.62,0,1,0,37.62,37.62,37.62,37.62,0,0,0-37.62-37.62Z"/></g></g></svg>